<svg width="181" height="41" viewBox="0 0 181 41" fill="none" xmlns="http://www.w3.org/2000/svg">
<path d="M36 18C36 20.3638 35.5344 22.7044 34.6298 24.8883C33.7252 27.0722 32.3994 29.0565 30.7279 30.7279C29.0565 32.3994 27.0722 33.7252 24.8883 34.6298C22.7044 35.5344 20.3638 36 18 36C15.6362 36 13.2956 35.5344 11.1117 34.6298C8.92784 33.7252 6.94353 32.3994 5.27208 30.7279C3.60062 29.0565 2.27475 27.0722 1.37017 24.8883C0.465583 22.7044 -2.06649e-07 20.3638 0 18H9C9 19.1819 9.23279 20.3522 9.68508 21.4442C10.1374 22.5361 10.8003 23.5282 11.636 24.364C12.4718 25.1997 13.4639 25.8626 14.5558 26.3149C15.6478 26.7672 16.8181 27 18 27C19.1819 27 20.3522 26.7672 21.4442 26.3149C22.5361 25.8626 23.5282 25.1997 24.364 24.364C25.1997 23.5282 25.8626 22.5361 26.3149 21.4442C26.7672 20.3522 27 19.1819 27 18H36Z" fill="#10DBC2"/>
<path d="M0 18C-2.0665e-07 15.6362 0.465584 13.2956 1.37016 11.1117C2.27475 8.92784 3.60062 6.94354 5.27207 5.27208C6.94353 3.60063 8.92783 2.27476 11.1117 1.37017C13.2956 0.465584 15.6362 2.0665e-07 18 0C20.3638 -2.0665e-07 22.7044 0.465583 24.8883 1.37017C27.0722 2.27475 29.0565 3.60062 30.7279 5.27208C32.3994 6.94353 33.7252 8.92784 34.6298 11.1117C35.5344 13.2956 36 15.6362 36 18H27C27 16.8181 26.7672 15.6478 26.3149 14.5558C25.8626 13.4639 25.1997 12.4718 24.364 11.636C23.5282 10.8003 22.5361 10.1374 21.4441 9.68509C20.3522 9.23279 19.1819 9 18 9C16.8181 9 15.6478 9.23279 14.5558 9.68509C13.4639 10.1374 12.4718 10.8003 11.636 11.636C10.8003 12.4718 10.1374 13.4639 9.68508 14.5559C9.23279 15.6478 9 16.8181 9 18H0Z" fill="#E1FFFB"/>
<path d="M62.4131 10.2012C63.8965 10.2012 65.1579 10.3475 66.1973 10.6401C67.2367 10.9227 68.0843 11.3213 68.7402 11.8359C69.3962 12.3506 69.8755 12.9712 70.1782 13.6978C70.481 14.4142 70.6323 15.2064 70.6323 16.0742C70.6323 16.932 70.4961 17.714 70.2236 18.4204C69.9512 19.1268 69.492 19.7373 68.8462 20.252C68.2104 20.7565 67.3628 21.1501 66.3032 21.4326C65.2537 21.7051 63.9419 21.8413 62.3677 21.8413H59.3555V25.8677C59.3555 26.1906 59.3757 26.4479 59.416 26.6396C59.4665 26.8314 59.5472 26.9777 59.6582 27.0786C59.7692 27.1694 59.9256 27.23 60.1274 27.2603C60.3293 27.2905 60.5916 27.3057 60.9146 27.3057H61.6714V30C61.3182 30 60.9751 30 60.6421 30C60.3091 29.9899 59.966 29.9849 59.6128 29.9849C59.2596 29.9849 58.8812 29.9849 58.4775 29.9849C58.084 29.9748 57.6551 29.9697 57.1909 29.9697C56.6763 29.9697 56.1919 29.9748 55.7378 29.9849C55.2938 29.9849 54.8599 29.9849 54.436 29.9849C54.0223 29.9849 53.6187 29.9899 53.2251 30C52.8315 30 52.438 30 52.0444 30V27.3057H52.8013C53.1746 27.3057 53.4673 27.2855 53.6792 27.2451C53.9012 27.2048 54.0627 27.124 54.1636 27.0029C54.2645 26.8717 54.325 26.6951 54.3452 26.4731C54.3755 26.241 54.3906 25.9383 54.3906 25.5649V14.5454C54.3906 14.3032 54.3805 14.0863 54.3604 13.8945C54.3402 13.6927 54.2796 13.5212 54.1787 13.3799C54.0778 13.2285 53.9264 13.1125 53.7246 13.0317C53.5228 12.9409 53.2402 12.8955 52.877 12.8955H52.0444V10.2012H62.4131ZM59.3555 19.1772H61.8076C63.069 19.1772 64.0176 18.9199 64.6533 18.4053C65.2891 17.8906 65.6069 17.1035 65.6069 16.0439C65.6069 15.5293 65.5312 15.0802 65.3799 14.6968C65.2285 14.3032 64.9914 13.9803 64.6685 13.728C64.3455 13.4657 63.9268 13.2689 63.4121 13.1377C62.8975 13.0065 62.2718 12.9409 61.5352 12.9409H59.3555V19.1772ZM74.8706 16.271C76.5962 16.2609 77.8677 16.2357 78.6851 16.1953V19.1016C79.0685 18.0622 79.6841 17.2751 80.5317 16.7402C81.3895 16.2054 82.444 15.938 83.6953 15.938C83.9274 15.938 84.1595 15.9481 84.3916 15.9683C84.6338 15.9884 84.876 16.0187 85.1182 16.0591V20.6304C85.0273 20.6203 84.9113 20.6152 84.77 20.6152C84.6388 20.6152 84.5278 20.6152 84.437 20.6152C84.2756 20.6152 84.0889 20.6203 83.877 20.6304C83.6751 20.6304 83.5036 20.6354 83.3623 20.6455C83.2513 20.2217 83.0697 19.9189 82.8174 19.7373C82.5752 19.5557 82.2371 19.4648 81.8032 19.4648C81.4198 19.4648 81.0666 19.5405 80.7437 19.6919C80.4207 19.8433 80.1331 20.0602 79.8809 20.3428C79.6387 20.6152 79.4368 20.9533 79.2754 21.3569C79.124 21.7505 79.0231 22.1895 78.9727 22.6738C78.9424 22.7747 78.9172 23.0018 78.897 23.355C78.8768 23.7082 78.8617 24.0967 78.8516 24.5205C78.8415 24.9342 78.8364 25.3379 78.8364 25.7314C78.8364 26.1149 78.8364 26.3924 78.8364 26.564C78.8364 26.8263 78.8717 27.0231 78.9424 27.1543C79.0231 27.2855 79.1543 27.3813 79.3359 27.4419C79.5176 27.5024 79.7547 27.5378 80.0474 27.5479C80.34 27.5479 80.6982 27.5479 81.1221 27.5479V30C80.7184 30 80.3198 30 79.9263 30C79.5428 29.9899 79.1493 29.9849 78.7456 29.9849C78.342 29.9849 77.9131 29.9849 77.459 29.9849C77.015 29.9748 76.5306 29.9697 76.0059 29.9697C75.5921 29.9697 75.2137 29.9748 74.8706 29.9849C74.5376 29.9849 74.2197 29.9849 73.917 29.9849C73.6243 29.9849 73.3317 29.9899 73.0391 30C72.7565 30 72.4639 30 72.1611 30V27.5479C72.585 27.5479 72.918 27.5378 73.1602 27.5176C73.4124 27.4974 73.5941 27.4469 73.7051 27.3662C73.9069 27.3158 74.0381 27.2098 74.0986 27.0483C74.1693 26.8768 74.2046 26.5993 74.2046 26.2158V19.5405C74.2046 19.3185 74.1642 19.152 74.0835 19.041C74.0129 18.9199 73.8968 18.8341 73.7354 18.7837C73.5739 18.7332 73.367 18.703 73.1147 18.6929C72.8625 18.6828 72.5597 18.6777 72.2065 18.6777V16.2559C72.3781 16.2559 73.2661 16.2609 74.8706 16.271ZM94.9268 15.832C96.0469 15.832 97.1115 15.9884 98.1206 16.3013C99.1297 16.6141 100.013 17.0783 100.77 17.6938C101.526 18.3094 102.127 19.0763 102.571 19.9946C103.015 20.9028 103.237 21.9523 103.237 23.1431C103.237 24.3035 103.02 25.3379 102.586 26.2461C102.152 27.1543 101.562 27.901 100.815 28.4863C100.068 29.0716 99.1903 29.5308 98.1812 29.8638C97.172 30.1867 96.0872 30.3481 94.9268 30.3481C93.7562 30.3481 92.6663 30.1867 91.6572 29.8638C90.6481 29.5409 89.7651 29.0868 89.0083 28.5015C88.2616 27.9162 87.6712 27.1694 87.2373 26.2612C86.8135 25.353 86.6016 24.3136 86.6016 23.1431C86.6016 21.9927 86.8135 20.9634 87.2373 20.0552C87.6611 19.147 88.2464 18.38 88.9932 17.7544C89.7399 17.1287 90.6178 16.6545 91.627 16.3315C92.6462 15.9985 93.7461 15.832 94.9268 15.832ZM94.9419 18.3296C93.7915 18.3296 92.9035 18.7534 92.2778 19.6011C91.6522 20.4487 91.3394 21.6243 91.3394 23.1279C91.3394 24.6416 91.6471 25.8223 92.2627 26.6699C92.8783 27.5075 93.7562 27.9263 94.8965 27.9263C95.4616 27.9263 95.9661 27.8153 96.4102 27.5933C96.8542 27.3713 97.2326 27.0534 97.5454 26.6396C97.8582 26.2259 98.0954 25.7163 98.2568 25.1108C98.4183 24.5054 98.499 23.8242 98.499 23.0674C98.499 22.3307 98.4183 21.6698 98.2568 21.0845C98.0954 20.4992 97.8633 20.0047 97.5605 19.6011C97.2578 19.1873 96.8844 18.8745 96.4404 18.6626C95.9964 18.4406 95.4969 18.3296 94.9419 18.3296ZM104.387 16.2559C104.589 16.2559 104.816 16.2609 105.068 16.271C105.331 16.271 105.598 16.276 105.871 16.2861C106.143 16.2861 106.421 16.2912 106.703 16.3013C106.986 16.3013 107.248 16.3013 107.49 16.3013C107.914 16.3013 108.343 16.3013 108.777 16.3013C109.211 16.3013 109.63 16.3013 110.033 16.3013C110.447 16.2912 110.84 16.2861 111.214 16.2861C111.597 16.276 111.951 16.266 112.273 16.2559V18.6626C111.89 18.6626 111.612 18.6828 111.441 18.7231C111.279 18.7635 111.199 18.8392 111.199 18.9502C111.199 19.0511 111.259 19.1873 111.38 19.3589C111.512 19.5304 111.693 19.7424 111.925 19.9946L113.151 21.3872L114.347 19.9946C114.559 19.7424 114.726 19.5355 114.847 19.374C114.968 19.2126 115.028 19.0763 115.028 18.9653C115.028 18.8442 114.927 18.7635 114.726 18.7231C114.534 18.6828 114.221 18.6626 113.787 18.6626V16.2559C114.019 16.2559 114.302 16.2609 114.635 16.271C114.978 16.271 115.331 16.276 115.694 16.2861C116.068 16.2861 116.431 16.2861 116.784 16.2861C117.147 16.2861 117.47 16.2861 117.753 16.2861C118.066 16.2861 118.353 16.2861 118.616 16.2861C118.888 16.2861 119.151 16.2861 119.403 16.2861C119.655 16.2861 119.907 16.2861 120.16 16.2861C120.412 16.276 120.674 16.266 120.947 16.2559V18.6777H120.326C120.094 18.6777 119.897 18.6929 119.736 18.7231C119.584 18.7534 119.428 18.819 119.267 18.9199C119.115 19.0208 118.944 19.1722 118.752 19.374C118.57 19.5658 118.338 19.8281 118.056 20.1611C118.005 20.2217 117.93 20.3075 117.829 20.4185C117.738 20.5295 117.627 20.6556 117.496 20.7969C117.375 20.9382 117.238 21.0946 117.087 21.2661C116.946 21.4276 116.804 21.589 116.663 21.7505C116.33 22.134 115.962 22.5527 115.558 23.0068C115.558 23.0068 115.634 23.0825 115.785 23.2339C115.937 23.3752 116.128 23.5618 116.36 23.7939C116.603 24.016 116.865 24.2682 117.147 24.5508C117.44 24.8232 117.723 25.0907 117.995 25.353C118.268 25.6053 118.51 25.8424 118.722 26.0645C118.944 26.2764 119.105 26.4328 119.206 26.5337C119.428 26.7759 119.62 26.9626 119.781 27.0938C119.943 27.2249 120.099 27.3258 120.25 27.3965C120.412 27.4671 120.578 27.5125 120.75 27.5327C120.932 27.5428 121.144 27.5479 121.386 27.5479V30C121.184 30 120.982 30 120.78 30C120.589 29.9899 120.346 29.9849 120.054 29.9849H116.769C116.497 29.9849 116.184 29.9849 115.831 29.9849C115.487 29.9849 115.144 29.9849 114.801 29.9849C114.458 29.9849 114.135 29.9899 113.833 30C113.54 30 113.308 30 113.136 30V27.5479C113.843 27.5479 114.196 27.4167 114.196 27.1543C114.196 26.9525 113.964 26.6043 113.5 26.1099L112.243 24.8081L110.941 26.5942C110.679 26.9474 110.548 27.1846 110.548 27.3057C110.548 27.4167 110.624 27.4873 110.775 27.5176C110.936 27.5378 111.179 27.5479 111.501 27.5479L111.486 30C111.204 30 110.881 30 110.518 30C110.164 29.9899 109.801 29.9849 109.428 29.9849C109.064 29.9849 108.701 29.9849 108.338 29.9849C107.985 29.9748 107.662 29.9697 107.369 29.9697C107.097 29.9697 106.844 29.9748 106.612 29.9849C106.38 29.9849 106.148 29.9849 105.916 29.9849C105.684 29.9849 105.447 29.9899 105.205 30C104.962 30 104.695 30 104.402 30V27.5479H105.129C105.28 27.5479 105.406 27.5378 105.507 27.5176C105.618 27.4873 105.719 27.4419 105.81 27.3813C105.901 27.3208 105.992 27.2451 106.083 27.1543C106.173 27.0534 106.284 26.9272 106.416 26.7759C106.587 26.5741 106.844 26.2764 107.188 25.8828C107.541 25.4792 107.894 25.0705 108.247 24.6567C108.651 24.1724 109.09 23.6628 109.564 23.1279L106.34 19.4951C106.158 19.2933 105.997 19.1369 105.855 19.0259C105.714 18.9149 105.568 18.8341 105.417 18.7837C105.275 18.7332 105.124 18.703 104.962 18.6929C104.801 18.6727 104.609 18.6626 104.387 18.6626V16.2559ZM126.79 9.79248C127.163 9.79248 127.506 9.83789 127.819 9.92871C128.142 10.0094 128.419 10.1305 128.651 10.292C128.894 10.4434 129.08 10.6351 129.211 10.8672C129.343 11.0993 129.408 11.3566 129.408 11.6392C129.408 12.2043 129.171 12.6584 128.697 13.0015C128.233 13.3446 127.597 13.5161 126.79 13.5161C126.002 13.5161 125.372 13.3597 124.897 13.0469C124.423 12.734 124.186 12.2648 124.186 11.6392C124.186 11.0841 124.423 10.6401 124.897 10.3071C125.372 9.96403 126.002 9.79248 126.79 9.79248ZM129.378 26.1553C129.378 26.4681 129.398 26.7153 129.438 26.897C129.489 27.0786 129.575 27.2199 129.696 27.3208C129.827 27.4116 130.009 27.4722 130.241 27.5024C130.473 27.5327 130.776 27.5479 131.149 27.5479V30C130.806 30 130.422 30 129.999 30C129.585 29.9899 129.161 29.9849 128.727 29.9849C128.303 29.9849 127.889 29.9849 127.486 29.9849C127.092 29.9748 126.744 29.9697 126.441 29.9697C126.078 29.9697 125.74 29.9748 125.427 29.9849C125.114 29.9849 124.817 29.9849 124.534 29.9849C124.252 29.9849 123.974 29.9899 123.702 30C123.429 30 123.152 30 122.869 30V27.5479C123.293 27.5479 123.626 27.5378 123.868 27.5176C124.12 27.4873 124.312 27.4268 124.443 27.3359C124.575 27.235 124.66 27.0938 124.701 26.9121C124.741 26.7305 124.761 26.4782 124.761 26.1553V19.5254C124.761 19.3135 124.726 19.152 124.655 19.041C124.585 18.93 124.474 18.8493 124.322 18.7988C124.171 18.7383 123.979 18.703 123.747 18.6929C123.525 18.6828 123.258 18.6777 122.945 18.6777C122.945 18.264 122.945 17.8604 122.945 17.4668C122.955 17.0732 122.96 16.6696 122.96 16.2559C123.384 16.2559 123.787 16.2609 124.171 16.271C124.554 16.271 124.928 16.271 125.291 16.271C125.947 16.271 126.613 16.266 127.289 16.2559C127.975 16.2458 128.672 16.2256 129.378 16.1953V26.1553ZM144.878 22.3105C144.878 21.7253 144.838 21.2157 144.757 20.7817C144.686 20.3478 144.565 19.9896 144.394 19.707C144.222 19.4144 143.985 19.1974 143.682 19.0562C143.389 18.9048 143.026 18.8291 142.592 18.8291C141.967 18.8291 141.422 18.9401 140.958 19.1621C140.493 19.374 140.064 19.7373 139.671 20.252C139.56 20.4235 139.469 20.7262 139.398 21.1602C139.328 21.5941 139.292 22.144 139.292 22.8101V26.3066C139.292 26.6094 139.328 26.8465 139.398 27.0181C139.469 27.1795 139.585 27.3006 139.747 27.3813C139.908 27.452 140.12 27.4974 140.382 27.5176C140.645 27.5378 140.968 27.5479 141.351 27.5479V30C140.978 30 140.619 30 140.276 30C139.933 30 139.58 30 139.217 30C138.854 29.9899 138.47 29.9849 138.066 29.9849C137.663 29.9748 137.219 29.9697 136.734 29.9697C136.321 29.9697 135.937 29.9748 135.584 29.9849C135.241 29.9849 134.908 29.9849 134.585 29.9849C134.272 29.9849 133.959 29.9899 133.646 30C133.344 30 133.036 30 132.723 30V27.5479C133.157 27.5479 133.5 27.5327 133.752 27.5024C134.015 27.4722 134.212 27.4167 134.343 27.3359C134.484 27.2451 134.575 27.124 134.615 26.9727C134.656 26.8112 134.676 26.6043 134.676 26.3521V19.5405C134.676 19.147 134.519 18.9048 134.207 18.814C133.894 18.7231 133.424 18.6777 132.799 18.6777V16.2559C133.091 16.2559 133.369 16.2609 133.631 16.271C133.904 16.2811 134.181 16.2861 134.464 16.2861C135.251 16.2861 136.023 16.2811 136.78 16.271C137.537 16.2508 138.324 16.2306 139.141 16.2104V18.6021C139.403 18.2388 139.721 17.9007 140.095 17.5879C140.468 17.265 140.892 16.9824 141.366 16.7402C141.851 16.498 142.375 16.3063 142.94 16.165C143.516 16.0238 144.131 15.9531 144.787 15.9531C145.857 15.9531 146.765 16.1802 147.512 16.6343C148.258 17.0884 148.824 17.7746 149.207 18.6929C149.984 17.825 150.852 17.154 151.811 16.6797C152.769 16.1953 153.799 15.9531 154.898 15.9531C155.817 15.9531 156.579 16.0994 157.184 16.3921C157.8 16.6746 158.294 17.0934 158.667 17.6484C159.041 18.1934 159.303 18.8745 159.455 19.6919C159.616 20.4992 159.697 21.4326 159.697 22.4922V26.6396C159.697 26.8617 159.727 27.0332 159.788 27.1543C159.858 27.2754 159.964 27.3662 160.105 27.4268C160.257 27.4772 160.449 27.5125 160.681 27.5327C160.923 27.5428 161.215 27.5479 161.559 27.5479V30C160.913 30 160.272 29.995 159.636 29.9849C159 29.9748 158.284 29.9697 157.487 29.9697C156.7 29.9697 155.968 29.9748 155.292 29.9849C154.626 29.995 153.945 30 153.249 30V27.5479C153.602 27.5479 153.894 27.5277 154.126 27.4873C154.369 27.4368 154.555 27.3612 154.687 27.2603C154.828 27.1593 154.924 27.0181 154.974 26.8364C155.035 26.6548 155.065 26.4277 155.065 26.1553V21.9775C155.065 20.9482 154.898 20.1662 154.565 19.6313C154.232 19.0965 153.627 18.8291 152.749 18.8291C152.053 18.8291 151.467 18.9704 150.993 19.2529C150.529 19.5254 150.135 19.8786 149.812 20.3125C149.701 20.6253 149.621 20.9684 149.57 21.3418C149.53 21.7152 149.51 22.1239 149.51 22.5679V26.5791C149.51 26.791 149.54 26.9626 149.601 27.0938C149.661 27.2148 149.757 27.3107 149.888 27.3813C150.029 27.452 150.216 27.4974 150.448 27.5176C150.68 27.5378 150.968 27.5479 151.311 27.5479V30C150.978 30 150.65 30 150.327 30C150.014 30 149.691 30 149.358 30C149.025 29.9899 148.672 29.9849 148.299 29.9849C147.925 29.9748 147.512 29.9697 147.058 29.9697C146.664 29.9697 146.296 29.9748 145.953 29.9849C145.61 29.9849 145.282 29.9849 144.969 29.9849C144.666 29.9849 144.363 29.9899 144.061 30C143.768 30 143.47 30 143.167 30V27.5479C143.833 27.5378 144.283 27.4268 144.515 27.2148C144.757 27.0029 144.878 26.6851 144.878 26.2612V22.3105ZM178.239 25.8828C178.239 26.2965 178.249 26.6195 178.27 26.8516C178.3 27.0837 178.355 27.2552 178.436 27.3662C178.527 27.4671 178.648 27.5277 178.799 27.5479C178.951 27.568 179.158 27.5781 179.42 27.5781H180.146V30C180.066 30 179.889 30 179.617 30C179.344 30 179.047 30 178.724 30C178.401 29.9899 178.088 29.9849 177.785 29.9849C177.493 29.9849 177.286 29.9849 177.165 29.9849C176.882 29.9849 176.625 29.9899 176.393 30C176.16 30 175.933 30 175.711 30C175.5 30.0101 175.278 30.0151 175.045 30.0151C174.813 30.0252 174.556 30.0353 174.273 30.0454L173.819 28.0776C173.597 28.4308 173.335 28.7487 173.032 29.0312C172.729 29.3037 172.366 29.5409 171.942 29.7427C171.519 29.9344 171.029 30.0807 170.474 30.1816C169.919 30.2926 169.283 30.3481 168.567 30.3481C167.699 30.3481 166.932 30.2321 166.266 30C165.61 29.778 165.06 29.4753 164.616 29.0918C164.182 28.7083 163.854 28.2593 163.632 27.7446C163.41 27.2199 163.299 26.6649 163.299 26.0796C163.299 25.4035 163.446 24.793 163.738 24.248C164.041 23.7031 164.47 23.244 165.025 22.8706C165.59 22.4871 166.271 22.1945 167.068 21.9927C167.866 21.7808 168.769 21.6748 169.778 21.6748C170.434 21.6748 171.09 21.7152 171.746 21.7959C172.402 21.8665 173.022 21.9775 173.607 22.1289V20.3882C173.607 19.6213 173.34 19.0107 172.805 18.5566C172.28 18.1025 171.463 17.8755 170.353 17.8755C168.516 17.8755 167.422 18.6071 167.068 20.0703L164.571 19.8433L164.662 16.8159C164.813 16.7453 165.06 16.6545 165.403 16.5435C165.746 16.4325 166.18 16.3265 166.705 16.2256C167.23 16.1146 167.835 16.0238 168.521 15.9531C169.208 15.8724 169.97 15.832 170.807 15.832C172.119 15.832 173.244 15.9279 174.183 16.1196C175.121 16.3013 175.888 16.5939 176.483 16.9976C177.089 17.4012 177.533 17.9259 177.815 18.5718C178.098 19.2075 178.239 19.9845 178.239 20.9028V25.8828ZM171.095 23.249C170.035 23.249 169.213 23.466 168.627 23.8999C168.042 24.3338 167.75 24.9443 167.75 25.7314C167.75 26.1048 167.815 26.4076 167.946 26.6396C168.077 26.8617 168.254 27.0786 168.476 27.2905C168.708 27.4924 168.981 27.6488 169.293 27.7598C169.616 27.8708 169.959 27.9263 170.323 27.9263C170.817 27.9263 171.266 27.8607 171.67 27.7295C172.074 27.5983 172.417 27.4066 172.699 27.1543C172.992 26.8919 173.214 26.6094 173.365 26.3066C173.527 26.0039 173.607 25.6154 173.607 25.1411V23.582C173.184 23.4609 172.765 23.3752 172.351 23.3247C171.937 23.2743 171.519 23.249 171.095 23.249Z" fill="white"/>
</svg>
